<mxfile host="app.diagrams.net" modified="2023-09-02T00:13:17.315Z" agent="Mozilla/5.0 (Windows NT 10.0; Win64; x64) AppleWebKit/537.36 (KHTML, like Gecko) Chrome/114.0.0.0 Safari/537.36" etag="Chbw-BbOnMGrPPzTshUL" version="21.7.2" type="github" pages="2">
  <diagram name="PÃ¡gina-1" id="-qW58_GhshsxzdDtOPzn">
    <mxGraphModel dx="1122" dy="462" grid="1" gridSize="10" guides="1" tooltips="1" connect="1" arrows="1" fold="1" page="1" pageScale="1" pageWidth="827" pageHeight="1169" math="0" shadow="0">
      <root>
        <mxCell id="0" />
        <mxCell id="1" parent="0" />
        <mxCell id="_R3rs_4hR0NqyDZRpijg-22" style="edgeStyle=orthogonalEdgeStyle;rounded=0;orthogonalLoop=1;jettySize=auto;html=1;entryX=0;entryY=0.5;entryDx=0;entryDy=0;" parent="1" source="_R3rs_4hR0NqyDZRpijg-8" target="_R3rs_4hR0NqyDZRpijg-20" edge="1">
          <mxGeometry relative="1" as="geometry" />
        </mxCell>
        <mxCell id="_R3rs_4hR0NqyDZRpijg-8" value="cliente" style="whiteSpace=wrap;html=1;align=center;fillColor=#60a917;fontColor=#ffffff;strokeColor=#2D7600;" parent="1" vertex="1">
          <mxGeometry x="120" y="380" width="100" height="40" as="geometry" />
        </mxCell>
        <mxCell id="_R3rs_4hR0NqyDZRpijg-25" style="edgeStyle=orthogonalEdgeStyle;rounded=0;orthogonalLoop=1;jettySize=auto;html=1;entryX=0.5;entryY=0;entryDx=0;entryDy=0;" parent="1" source="_R3rs_4hR0NqyDZRpijg-9" target="_R3rs_4hR0NqyDZRpijg-19" edge="1">
          <mxGeometry relative="1" as="geometry" />
        </mxCell>
        <mxCell id="_R3rs_4hR0NqyDZRpijg-9" value="provedores" style="whiteSpace=wrap;html=1;align=center;fillColor=#d80073;fontColor=#ffffff;strokeColor=#A50040;" parent="1" vertex="1">
          <mxGeometry x="630" y="80" width="100" height="40" as="geometry" />
        </mxCell>
        <mxCell id="Z9zLvjh80w3jOYLQ8SO6-1" style="edgeStyle=orthogonalEdgeStyle;rounded=0;orthogonalLoop=1;jettySize=auto;html=1;entryX=1;entryY=0.5;entryDx=0;entryDy=0;" edge="1" parent="1" source="_R3rs_4hR0NqyDZRpijg-10" target="_R3rs_4hR0NqyDZRpijg-20">
          <mxGeometry relative="1" as="geometry" />
        </mxCell>
        <mxCell id="Z9zLvjh80w3jOYLQ8SO6-6" style="edgeStyle=orthogonalEdgeStyle;rounded=0;orthogonalLoop=1;jettySize=auto;html=1;entryX=-0.1;entryY=0.067;entryDx=0;entryDy=0;entryPerimeter=0;" edge="1" parent="1" source="_R3rs_4hR0NqyDZRpijg-10" target="_R3rs_4hR0NqyDZRpijg-55">
          <mxGeometry relative="1" as="geometry" />
        </mxCell>
        <mxCell id="_R3rs_4hR0NqyDZRpijg-10" value="producto" style="whiteSpace=wrap;html=1;align=center;fillColor=#1ba1e2;fontColor=#ffffff;strokeColor=#006EAF;" parent="1" vertex="1">
          <mxGeometry x="630" y="380" width="100" height="40" as="geometry" />
        </mxCell>
        <mxCell id="_R3rs_4hR0NqyDZRpijg-19" value="suministra" style="shape=rhombus;perimeter=rhombusPerimeter;whiteSpace=wrap;html=1;align=center;" parent="1" vertex="1">
          <mxGeometry x="620" y="220" width="120" height="60" as="geometry" />
        </mxCell>
        <mxCell id="_R3rs_4hR0NqyDZRpijg-20" value="compra" style="shape=rhombus;perimeter=rhombusPerimeter;whiteSpace=wrap;html=1;align=center;" parent="1" vertex="1">
          <mxGeometry x="370" y="370" width="120" height="60" as="geometry" />
        </mxCell>
        <mxCell id="_R3rs_4hR0NqyDZRpijg-34" style="edgeStyle=orthogonalEdgeStyle;rounded=0;orthogonalLoop=1;jettySize=auto;html=1;entryX=0.5;entryY=0;entryDx=0;entryDy=0;" parent="1" source="_R3rs_4hR0NqyDZRpijg-31" target="_R3rs_4hR0NqyDZRpijg-8" edge="1">
          <mxGeometry relative="1" as="geometry" />
        </mxCell>
        <mxCell id="_R3rs_4hR0NqyDZRpijg-31" value="RFC" style="ellipse;whiteSpace=wrap;html=1;align=center;fontStyle=4;fillColor=#60a917;fontColor=#ffffff;strokeColor=#2D7600;" parent="1" vertex="1">
          <mxGeometry x="120" y="260" width="100" height="40" as="geometry" />
        </mxCell>
        <mxCell id="_R3rs_4hR0NqyDZRpijg-33" style="edgeStyle=orthogonalEdgeStyle;rounded=0;orthogonalLoop=1;jettySize=auto;html=1;exitX=1;exitY=0.5;exitDx=0;exitDy=0;entryX=0;entryY=0.5;entryDx=0;entryDy=0;" parent="1" source="_R3rs_4hR0NqyDZRpijg-32" target="_R3rs_4hR0NqyDZRpijg-9" edge="1">
          <mxGeometry relative="1" as="geometry" />
        </mxCell>
        <mxCell id="_R3rs_4hR0NqyDZRpijg-32" value="RFC" style="ellipse;whiteSpace=wrap;html=1;align=center;fontStyle=4;fillColor=#d80073;fontColor=#ffffff;strokeColor=#A50040;" parent="1" vertex="1">
          <mxGeometry x="450" y="80" width="100" height="40" as="geometry" />
        </mxCell>
        <mxCell id="_R3rs_4hR0NqyDZRpijg-47" style="edgeStyle=orthogonalEdgeStyle;rounded=0;orthogonalLoop=1;jettySize=auto;html=1;entryX=0;entryY=1;entryDx=0;entryDy=0;" parent="1" source="_R3rs_4hR0NqyDZRpijg-36" target="_R3rs_4hR0NqyDZRpijg-20" edge="1">
          <mxGeometry relative="1" as="geometry" />
        </mxCell>
        <mxCell id="_R3rs_4hR0NqyDZRpijg-36" value="&lt;span style=&quot;border-bottom: 1px dotted&quot;&gt;RFC&lt;/span&gt;" style="ellipse;whiteSpace=wrap;html=1;align=center;fillColor=#60a917;fontColor=#ffffff;strokeColor=#2D7600;" parent="1" vertex="1">
          <mxGeometry x="310" y="490" width="100" height="40" as="geometry" />
        </mxCell>
        <mxCell id="_R3rs_4hR0NqyDZRpijg-48" style="edgeStyle=orthogonalEdgeStyle;rounded=0;orthogonalLoop=1;jettySize=auto;html=1;entryX=1;entryY=1;entryDx=0;entryDy=0;" parent="1" source="_R3rs_4hR0NqyDZRpijg-37" target="_R3rs_4hR0NqyDZRpijg-20" edge="1">
          <mxGeometry relative="1" as="geometry" />
        </mxCell>
        <mxCell id="_R3rs_4hR0NqyDZRpijg-37" value="&lt;span style=&quot;border-bottom: 1px dotted&quot;&gt;codigo&lt;/span&gt;" style="ellipse;whiteSpace=wrap;html=1;align=center;fillColor=#1ba1e2;fontColor=#ffffff;strokeColor=#006EAF;" parent="1" vertex="1">
          <mxGeometry x="450" y="490" width="100" height="40" as="geometry" />
        </mxCell>
        <mxCell id="_R3rs_4hR0NqyDZRpijg-39" style="edgeStyle=orthogonalEdgeStyle;rounded=0;orthogonalLoop=1;jettySize=auto;html=1;entryX=0.5;entryY=1;entryDx=0;entryDy=0;" parent="1" source="_R3rs_4hR0NqyDZRpijg-38" target="_R3rs_4hR0NqyDZRpijg-10" edge="1">
          <mxGeometry relative="1" as="geometry">
            <mxPoint x="680" y="430" as="targetPoint" />
          </mxGeometry>
        </mxCell>
        <mxCell id="_R3rs_4hR0NqyDZRpijg-38" value="codigo" style="ellipse;whiteSpace=wrap;html=1;align=center;fontStyle=4;fillColor=#1ba1e2;fontColor=#ffffff;strokeColor=#006EAF;" parent="1" vertex="1">
          <mxGeometry x="630" y="470" width="100" height="40" as="geometry" />
        </mxCell>
        <mxCell id="_R3rs_4hR0NqyDZRpijg-40" value="1" style="text;strokeColor=none;fillColor=none;spacingLeft=4;spacingRight=4;overflow=hidden;rotatable=0;points=[[0,0.5],[1,0.5]];portConstraint=eastwest;fontSize=12;whiteSpace=wrap;html=1;" parent="1" vertex="1">
          <mxGeometry x="230" y="360" width="20" height="30" as="geometry" />
        </mxCell>
        <mxCell id="_R3rs_4hR0NqyDZRpijg-41" value="1" style="text;strokeColor=none;fillColor=none;spacingLeft=4;spacingRight=4;overflow=hidden;rotatable=0;points=[[0,0.5],[1,0.5]];portConstraint=eastwest;fontSize=12;whiteSpace=wrap;html=1;" parent="1" vertex="1">
          <mxGeometry x="600" y="360" width="20" height="30" as="geometry" />
        </mxCell>
        <mxCell id="_R3rs_4hR0NqyDZRpijg-42" value="N:M" style="text;strokeColor=none;fillColor=none;spacingLeft=4;spacingRight=4;overflow=hidden;rotatable=0;points=[[0,0.5],[1,0.5]];portConstraint=eastwest;fontSize=12;whiteSpace=wrap;html=1;" parent="1" vertex="1">
          <mxGeometry x="410" y="340" width="36" height="30" as="geometry" />
        </mxCell>
        <mxCell id="_R3rs_4hR0NqyDZRpijg-59" style="edgeStyle=orthogonalEdgeStyle;rounded=0;orthogonalLoop=1;jettySize=auto;html=1;entryX=0.17;entryY=0;entryDx=0;entryDy=0;entryPerimeter=0;" parent="1" source="_R3rs_4hR0NqyDZRpijg-43" target="_R3rs_4hR0NqyDZRpijg-8" edge="1">
          <mxGeometry relative="1" as="geometry" />
        </mxCell>
        <mxCell id="_R3rs_4hR0NqyDZRpijg-43" value="nombre" style="ellipse;whiteSpace=wrap;html=1;fillColor=#60a917;fontColor=#ffffff;strokeColor=#2D7600;" parent="1" vertex="1">
          <mxGeometry x="10" y="330" width="50" height="40" as="geometry" />
        </mxCell>
        <mxCell id="_R3rs_4hR0NqyDZRpijg-60" style="edgeStyle=orthogonalEdgeStyle;rounded=0;orthogonalLoop=1;jettySize=auto;html=1;entryX=0;entryY=0.25;entryDx=0;entryDy=0;" parent="1" source="_R3rs_4hR0NqyDZRpijg-44" target="_R3rs_4hR0NqyDZRpijg-8" edge="1">
          <mxGeometry relative="1" as="geometry" />
        </mxCell>
        <mxCell id="_R3rs_4hR0NqyDZRpijg-44" value="apellidos" style="ellipse;whiteSpace=wrap;html=1;fillColor=#60a917;fontColor=#ffffff;strokeColor=#2D7600;" parent="1" vertex="1">
          <mxGeometry y="390" width="70" height="40" as="geometry" />
        </mxCell>
        <mxCell id="_R3rs_4hR0NqyDZRpijg-61" style="edgeStyle=orthogonalEdgeStyle;rounded=0;orthogonalLoop=1;jettySize=auto;html=1;entryX=0;entryY=1;entryDx=0;entryDy=0;" parent="1" source="_R3rs_4hR0NqyDZRpijg-45" target="_R3rs_4hR0NqyDZRpijg-8" edge="1">
          <mxGeometry relative="1" as="geometry" />
        </mxCell>
        <mxCell id="_R3rs_4hR0NqyDZRpijg-45" value="direccion" style="ellipse;whiteSpace=wrap;html=1;fillColor=#60a917;fontColor=#ffffff;strokeColor=#2D7600;" parent="1" vertex="1">
          <mxGeometry x="50" y="460" width="70" height="40" as="geometry" />
        </mxCell>
        <mxCell id="_R3rs_4hR0NqyDZRpijg-62" style="edgeStyle=orthogonalEdgeStyle;rounded=0;orthogonalLoop=1;jettySize=auto;html=1;entryX=0.5;entryY=1;entryDx=0;entryDy=0;" parent="1" source="_R3rs_4hR0NqyDZRpijg-46" target="_R3rs_4hR0NqyDZRpijg-8" edge="1">
          <mxGeometry relative="1" as="geometry" />
        </mxCell>
        <mxCell id="_R3rs_4hR0NqyDZRpijg-46" value="fecha de nacimiento" style="ellipse;whiteSpace=wrap;html=1;fillColor=#60a917;fontColor=#ffffff;strokeColor=#2D7600;" parent="1" vertex="1">
          <mxGeometry x="140" y="450" width="70" height="40" as="geometry" />
        </mxCell>
        <mxCell id="_R3rs_4hR0NqyDZRpijg-50" value="1" style="text;strokeColor=none;fillColor=none;spacingLeft=4;spacingRight=4;overflow=hidden;rotatable=0;points=[[0,0.5],[1,0.5]];portConstraint=eastwest;fontSize=12;whiteSpace=wrap;html=1;" parent="1" vertex="1">
          <mxGeometry x="685" y="120" width="20" height="30" as="geometry" />
        </mxCell>
        <mxCell id="_R3rs_4hR0NqyDZRpijg-51" value="1:N" style="text;strokeColor=none;fillColor=none;spacingLeft=4;spacingRight=4;overflow=hidden;rotatable=0;points=[[0,0.5],[1,0.5]];portConstraint=eastwest;fontSize=12;whiteSpace=wrap;html=1;" parent="1" vertex="1">
          <mxGeometry x="740" y="235" width="30" height="30" as="geometry" />
        </mxCell>
        <mxCell id="_R3rs_4hR0NqyDZRpijg-57" style="edgeStyle=orthogonalEdgeStyle;rounded=0;orthogonalLoop=1;jettySize=auto;html=1;entryX=0.5;entryY=0;entryDx=0;entryDy=0;" parent="1" source="_R3rs_4hR0NqyDZRpijg-52" target="_R3rs_4hR0NqyDZRpijg-9" edge="1">
          <mxGeometry relative="1" as="geometry" />
        </mxCell>
        <mxCell id="_R3rs_4hR0NqyDZRpijg-52" value="nombre" style="ellipse;whiteSpace=wrap;html=1;fillColor=#d80073;fontColor=#ffffff;strokeColor=#A50040;" parent="1" vertex="1">
          <mxGeometry x="750" y="40" width="70" height="40" as="geometry" />
        </mxCell>
        <mxCell id="_R3rs_4hR0NqyDZRpijg-58" style="edgeStyle=orthogonalEdgeStyle;rounded=0;orthogonalLoop=1;jettySize=auto;html=1;exitX=0;exitY=0.5;exitDx=0;exitDy=0;entryX=1;entryY=0.5;entryDx=0;entryDy=0;" parent="1" source="_R3rs_4hR0NqyDZRpijg-53" target="_R3rs_4hR0NqyDZRpijg-9" edge="1">
          <mxGeometry relative="1" as="geometry" />
        </mxCell>
        <mxCell id="_R3rs_4hR0NqyDZRpijg-53" value="direccion" style="ellipse;whiteSpace=wrap;html=1;fillColor=#d80073;fontColor=#ffffff;strokeColor=#A50040;" parent="1" vertex="1">
          <mxGeometry x="750" y="100" width="70" height="40" as="geometry" />
        </mxCell>
        <mxCell id="_R3rs_4hR0NqyDZRpijg-54" value="N" style="text;strokeColor=none;fillColor=none;spacingLeft=4;spacingRight=4;overflow=hidden;rotatable=0;points=[[0,0.5],[1,0.5]];portConstraint=eastwest;fontSize=12;whiteSpace=wrap;html=1;" parent="1" vertex="1">
          <mxGeometry x="685" y="190" width="20" height="30" as="geometry" />
        </mxCell>
        <mxCell id="_R3rs_4hR0NqyDZRpijg-55" value="1" style="text;strokeColor=none;fillColor=none;spacingLeft=4;spacingRight=4;overflow=hidden;rotatable=0;points=[[0,0.5],[1,0.5]];portConstraint=eastwest;fontSize=12;whiteSpace=wrap;html=1;" parent="1" vertex="1">
          <mxGeometry x="685" y="280" width="20" height="30" as="geometry" />
        </mxCell>
        <mxCell id="_R3rs_4hR0NqyDZRpijg-56" value="1" style="text;strokeColor=none;fillColor=none;spacingLeft=4;spacingRight=4;overflow=hidden;rotatable=0;points=[[0,0.5],[1,0.5]];portConstraint=eastwest;fontSize=12;whiteSpace=wrap;html=1;" parent="1" vertex="1">
          <mxGeometry x="685" y="350" width="20" height="30" as="geometry" />
        </mxCell>
        <mxCell id="_R3rs_4hR0NqyDZRpijg-63" value="N" style="text;strokeColor=none;fillColor=none;spacingLeft=4;spacingRight=4;overflow=hidden;rotatable=0;points=[[0,0.5],[1,0.5]];portConstraint=eastwest;fontSize=12;whiteSpace=wrap;html=1;" parent="1" vertex="1">
          <mxGeometry x="360" y="360" width="20" height="30" as="geometry" />
        </mxCell>
        <mxCell id="_R3rs_4hR0NqyDZRpijg-64" value="N" style="text;strokeColor=none;fillColor=none;spacingLeft=4;spacingRight=4;overflow=hidden;rotatable=0;points=[[0,0.5],[1,0.5]];portConstraint=eastwest;fontSize=12;whiteSpace=wrap;html=1;" parent="1" vertex="1">
          <mxGeometry x="480" y="360" width="20" height="30" as="geometry" />
        </mxCell>
        <mxCell id="Z9zLvjh80w3jOYLQ8SO6-8" style="edgeStyle=orthogonalEdgeStyle;rounded=0;orthogonalLoop=1;jettySize=auto;html=1;entryX=1;entryY=0.5;entryDx=0;entryDy=0;" edge="1" parent="1" source="Z9zLvjh80w3jOYLQ8SO6-7" target="_R3rs_4hR0NqyDZRpijg-10">
          <mxGeometry relative="1" as="geometry" />
        </mxCell>
        <mxCell id="Z9zLvjh80w3jOYLQ8SO6-7" value="&lt;span style=&quot;border-bottom: 1px dotted&quot;&gt;RFC&lt;/span&gt;" style="ellipse;whiteSpace=wrap;html=1;align=center;fillColor=#CC0066;" vertex="1" parent="1">
          <mxGeometry x="770" y="390" width="60" height="30" as="geometry" />
        </mxCell>
      </root>
    </mxGraphModel>
  </diagram>
  <diagram id="tiyzQJVF_6YCn0D1ulnl" name="PÃ¡gina-2">
    <mxGraphModel dx="1180" dy="796" grid="1" gridSize="10" guides="1" tooltips="1" connect="1" arrows="1" fold="1" page="1" pageScale="1" pageWidth="827" pageHeight="1169" math="0" shadow="0">
      <root>
        <mxCell id="0" />
        <mxCell id="1" parent="0" />
        <mxCell id="76svjmecRjBBDPeiIwDU-3" value="coche" style="rounded=1;arcSize=10;whiteSpace=wrap;html=1;align=center;" vertex="1" parent="1">
          <mxGeometry x="150" y="710" width="100" height="40" as="geometry" />
        </mxCell>
        <mxCell id="76svjmecRjBBDPeiIwDU-4" value="matricula" style="ellipse;whiteSpace=wrap;html=1;align=center;fontStyle=4;" vertex="1" parent="1">
          <mxGeometry x="140" y="620" width="100" height="40" as="geometry" />
        </mxCell>
        <mxCell id="76svjmecRjBBDPeiIwDU-5" value="cliente" style="rounded=1;arcSize=10;whiteSpace=wrap;html=1;align=center;" vertex="1" parent="1">
          <mxGeometry x="350" y="710" width="100" height="40" as="geometry" />
        </mxCell>
        <mxCell id="76svjmecRjBBDPeiIwDU-6" value="RFC" style="ellipse;whiteSpace=wrap;html=1;align=center;fontStyle=4;" vertex="1" parent="1">
          <mxGeometry x="400" y="620" width="100" height="40" as="geometry" />
        </mxCell>
        <mxCell id="76svjmecRjBBDPeiIwDU-7" value="cliente" style="ellipse;whiteSpace=wrap;html=1;align=center;fontStyle=4;" vertex="1" parent="1">
          <mxGeometry x="290" y="620" width="100" height="40" as="geometry" />
        </mxCell>
      </root>
    </mxGraphModel>
  </diagram>
</mxfile>
